<svg width="197" height="16" viewBox="0 0 197 16" fill="none" xmlns="http://www.w3.org/2000/svg">
<path d="M0.129261 12V11.0412L3.73011 7.09943C4.1527 6.63778 4.50071 6.23651 4.77415 5.8956C5.04759 5.55114 5.25 5.22798 5.38139 4.92614C5.51634 4.62074 5.58381 4.30114 5.58381 3.96733C5.58381 3.58381 5.49148 3.25178 5.30682 2.97124C5.12571 2.6907 4.87713 2.47408 4.56108 2.32138C4.24503 2.16868 3.88991 2.09233 3.49574 2.09233C3.0767 2.09233 2.71094 2.17933 2.39844 2.35334C2.08949 2.52379 1.84979 2.76349 1.67933 3.07244C1.51243 3.38139 1.42898 3.74361 1.42898 4.15909H0.171875C0.171875 3.51989 0.319247 2.95881 0.613992 2.47585C0.908736 1.9929 1.31001 1.61648 1.81783 1.34659C2.32919 1.0767 2.9027 0.941761 3.53835 0.941761C4.17756 0.941761 4.74396 1.0767 5.23757 1.34659C5.73118 1.61648 6.11825 1.98047 6.39879 2.43857C6.67933 2.89666 6.8196 3.40625 6.8196 3.96733C6.8196 4.36861 6.7468 4.76101 6.60121 5.14453C6.45916 5.5245 6.21058 5.94886 5.85547 6.41761C5.50391 6.88281 5.01562 7.45099 4.39062 8.12216L1.94034 10.7429V10.8281H7.01136V12H0.129261ZM12.7695 12.1491C11.967 12.1491 11.2834 11.9308 10.7188 11.494C10.1541 11.0536 9.72266 10.4162 9.42436 9.58168C9.12607 8.74361 8.97692 7.73153 8.97692 6.54545C8.97692 5.36648 9.12607 4.35973 9.42436 3.52521C9.72621 2.68714 10.1594 2.04794 10.7241 1.6076C11.2923 1.16371 11.9741 0.941761 12.7695 0.941761C13.565 0.941761 14.245 1.16371 14.8097 1.6076C15.3778 2.04794 15.8111 2.68714 16.1094 3.52521C16.4112 4.35973 16.5621 5.36648 16.5621 6.54545C16.5621 7.73153 16.413 8.74361 16.1147 9.58168C15.8164 10.4162 15.3849 11.0536 14.8203 11.494C14.2557 11.9308 13.5721 12.1491 12.7695 12.1491ZM12.7695 10.9773C13.565 10.9773 14.1829 10.5937 14.6232 9.8267C15.0636 9.05966 15.2837 7.96591 15.2837 6.54545C15.2837 5.60085 15.1825 4.79652 14.9801 4.13246C14.7813 3.46839 14.4936 2.96236 14.1172 2.61435C13.7443 2.26634 13.2951 2.09233 12.7695 2.09233C11.9812 2.09233 11.3651 2.48118 10.9212 3.25888C10.4773 4.03303 10.2553 5.12855 10.2553 6.54545C10.2553 7.49006 10.3548 8.29261 10.5536 8.95312C10.7525 9.61364 11.0384 10.1161 11.4112 10.4606C11.7876 10.805 12.2404 10.9773 12.7695 10.9773ZM18.5863 12V11.0412L22.1871 7.09943C22.6097 6.63778 22.9577 6.23651 23.2312 5.8956C23.5046 5.55114 23.707 5.22798 23.8384 4.92614C23.9734 4.62074 24.0408 4.30114 24.0408 3.96733C24.0408 3.58381 23.9485 3.25178 23.7638 2.97124C23.5827 2.6907 23.3342 2.47408 23.0181 2.32138C22.7021 2.16868 22.3469 2.09233 21.9528 2.09233C21.5337 2.09233 21.168 2.17933 20.8555 2.35334C20.5465 2.52379 20.3068 2.76349 20.1364 3.07244C19.9695 3.38139 19.886 3.74361 19.886 4.15909H18.6289C18.6289 3.51989 18.7763 2.95881 19.071 2.47585C19.3658 1.9929 19.767 1.61648 20.2749 1.34659C20.7862 1.0767 21.3597 0.941761 21.9954 0.941761C22.6346 0.941761 23.201 1.0767 23.6946 1.34659C24.1882 1.61648 24.5753 1.98047 24.8558 2.43857C25.1364 2.89666 25.2766 3.40625 25.2766 3.96733C25.2766 4.36861 25.2038 4.76101 25.0582 5.14453C24.9162 5.5245 24.6676 5.94886 24.3125 6.41761C23.9609 6.88281 23.4727 7.45099 22.8477 8.12216L20.3974 10.7429V10.8281H25.4684V12H18.5863ZM27.1783 9.76278V8.67614L31.9723 1.09091H32.7607V2.77415H32.228L28.6058 8.50568V8.59091H35.0618V9.76278H27.1783ZM32.3132 12V9.43253V8.92649V1.09091H33.5703V12H32.3132ZM41.4685 12V1.09091H45.2824C46.0423 1.09091 46.6691 1.2223 47.1627 1.48509C47.6563 1.74432 48.0239 2.0941 48.2654 2.53445C48.5068 2.97124 48.6276 3.45597 48.6276 3.98864C48.6276 4.45739 48.5441 4.84446 48.3772 5.14986C48.2139 5.45526 47.9972 5.69673 47.7274 5.87429C47.461 6.05185 47.1716 6.18324 46.8591 6.26847V6.375C47.1929 6.39631 47.5285 6.51349 47.8659 6.72656C48.2032 6.93963 48.4855 7.24503 48.7128 7.64276C48.9401 8.04048 49.0537 8.52699 49.0537 9.10227C49.0537 9.64915 48.9294 10.141 48.6808 10.5778C48.4323 11.0146 48.0399 11.3608 47.5036 11.6165C46.9674 11.8722 46.2696 12 45.4102 12H41.4685ZM42.7895 10.8281H45.4102C46.2732 10.8281 46.8857 10.6612 47.248 10.3274C47.6137 9.99006 47.7966 9.58168 47.7966 9.10227C47.7966 8.73295 47.7025 8.39205 47.5143 8.07955C47.3261 7.76349 47.058 7.51136 46.71 7.32315C46.3619 7.13139 45.95 7.03551 45.4742 7.03551H42.7895V10.8281ZM42.7895 5.88494H45.2398C45.6375 5.88494 45.9962 5.80682 46.3158 5.65057C46.6389 5.49432 46.8946 5.27415 47.0828 4.99006C47.2746 4.70597 47.3705 4.37216 47.3705 3.98864C47.3705 3.50923 47.2036 3.10263 46.8698 2.76882C46.536 2.43146 46.0068 2.26278 45.2824 2.26278H42.7895V5.88494ZM54.3778 12.1705C53.6107 12.1705 52.9502 11.9893 52.3962 11.6271C51.8422 11.2649 51.4161 10.766 51.1178 10.1303C50.8195 9.49467 50.6704 8.76847 50.6704 7.9517C50.6704 7.12074 50.8231 6.38743 51.1285 5.75178C51.4374 5.11257 51.8671 4.61364 52.4175 4.25497C52.9715 3.89276 53.6178 3.71165 54.3564 3.71165C54.9317 3.71165 55.4502 3.81818 55.9118 4.03125C56.3735 4.24432 56.7517 4.54261 57.0464 4.92614C57.3412 5.30966 57.5241 5.7571 57.5951 6.26847H56.338C56.2421 5.8956 56.029 5.56534 55.6988 5.2777C55.3721 4.98651 54.9317 4.84091 54.3778 4.84091C53.8877 4.84091 53.458 4.96875 53.0887 5.22443C52.7229 5.47656 52.4371 5.83345 52.2311 6.2951C52.0287 6.7532 51.9275 7.29119 51.9275 7.90909C51.9275 8.54119 52.0269 9.09162 52.2258 9.56037C52.4282 10.0291 52.7123 10.3931 53.078 10.6523C53.4474 10.9116 53.8806 11.0412 54.3778 11.0412C54.7045 11.0412 55.001 10.9844 55.2673 10.8707C55.5336 10.7571 55.7591 10.5938 55.9438 10.3807C56.1285 10.1676 56.2599 9.91193 56.338 9.61364H57.5951C57.5241 10.0966 57.3483 10.5316 57.0677 10.9187C56.7907 11.3022 56.4232 11.6076 55.9651 11.8349C55.5106 12.0586 54.9814 12.1705 54.3778 12.1705ZM62.8632 12.1705C62.0748 12.1705 61.3948 11.9964 60.8231 11.6484C60.2549 11.2969 59.8163 10.8068 59.5074 10.1783C59.202 9.54616 59.0493 8.81108 59.0493 7.97301C59.0493 7.13494 59.202 6.39631 59.5074 5.7571C59.8163 5.11435 60.246 4.61364 60.7964 4.25497C61.3504 3.89276 61.9967 3.71165 62.7354 3.71165C63.1615 3.71165 63.5823 3.78267 63.9978 3.92472C64.4133 4.06676 64.7915 4.29759 65.1324 4.61719C65.4733 4.93324 65.7449 5.35227 65.9474 5.87429C66.1498 6.39631 66.251 7.03906 66.251 7.80256V8.33523H59.9442V7.24858H64.9726C64.9726 6.78693 64.8802 6.375 64.6956 6.01278C64.5145 5.65057 64.2552 5.3647 63.9179 5.15518C63.5841 4.94567 63.1899 4.84091 62.7354 4.84091C62.2346 4.84091 61.8014 4.9652 61.4356 5.21378C61.0734 5.45881 60.7947 5.77841 60.5993 6.17258C60.404 6.56676 60.3064 6.98935 60.3064 7.44034V8.16477C60.3064 8.78267 60.4129 9.30646 60.626 9.73615C60.8426 10.1623 61.1427 10.4872 61.5262 10.7109C61.9097 10.9311 62.3554 11.0412 62.8632 11.0412C63.1934 11.0412 63.4917 10.995 63.7581 10.9027C64.028 10.8068 64.2606 10.6648 64.4559 10.4766C64.6512 10.2848 64.8021 10.0469 64.9086 9.76278L66.1231 10.1037C65.9953 10.5156 65.7805 10.8778 65.4786 11.1903C65.1768 11.4993 64.8039 11.7408 64.36 11.9148C63.9161 12.0852 63.4172 12.1705 62.8632 12.1705ZM72.382 12V3.81818H78.8167V12H77.5596V4.99006H73.6391V12H72.382ZM81.1125 15.0682V3.81818H82.327V5.1179H82.4761C82.5684 4.97585 82.6963 4.79474 82.8596 4.57457C83.0265 4.35085 83.2645 4.15199 83.5734 3.97798C83.8859 3.80043 84.3085 3.71165 84.8412 3.71165C85.5301 3.71165 86.1373 3.88388 86.6629 4.22834C87.1885 4.5728 87.5986 5.06108 87.8934 5.69318C88.1881 6.32528 88.3355 7.07102 88.3355 7.9304C88.3355 8.79688 88.1881 9.54794 87.8934 10.1836C87.5986 10.8157 87.1903 11.3058 86.6682 11.6538C86.1462 11.9982 85.5443 12.1705 84.8625 12.1705C84.3369 12.1705 83.9161 12.0835 83.6001 11.9094C83.284 11.7319 83.0407 11.5312 82.8703 11.3075C82.6998 11.0803 82.5684 10.892 82.4761 10.7429H82.3696V15.0682H81.1125ZM82.3483 7.90909C82.3483 8.52699 82.4388 9.07209 82.6199 9.54439C82.801 10.0131 83.0656 10.3807 83.4136 10.647C83.7616 10.9098 84.1878 11.0412 84.692 11.0412C85.2176 11.0412 85.6562 10.9027 86.0077 10.6257C86.3628 10.3452 86.6292 9.96875 86.8067 9.49645C86.9878 9.0206 87.0784 8.49148 87.0784 7.90909C87.0784 7.33381 86.9896 6.81534 86.8121 6.35369C86.6381 5.88849 86.3735 5.52095 86.0184 5.25107C85.6668 4.97763 85.2247 4.84091 84.692 4.84091C84.1807 4.84091 83.751 4.97053 83.403 5.22976C83.055 5.48544 82.7922 5.84411 82.6146 6.30575C82.4371 6.76385 82.3483 7.2983 82.3483 7.90909ZM92.6608 12.1918C92.1423 12.1918 91.6718 12.0941 91.2492 11.8988C90.8266 11.6999 90.491 11.4141 90.2425 11.0412C89.9939 10.6648 89.8696 10.2102 89.8696 9.67756C89.8696 9.20881 89.9619 8.82884 90.1466 8.53764C90.3312 8.2429 90.578 8.01207 90.887 7.84517C91.1959 7.67827 91.5368 7.55398 91.9097 7.4723C92.2861 7.38707 92.6643 7.3196 93.0443 7.26989C93.5415 7.20597 93.9445 7.15803 94.2535 7.12607C94.566 7.09055 94.7932 7.03196 94.9353 6.95028C95.0809 6.86861 95.1537 6.72656 95.1537 6.52415V6.48153C95.1537 5.95597 95.0099 5.54759 94.7222 5.25639C94.4381 4.9652 94.0067 4.8196 93.4278 4.8196C92.8277 4.8196 92.3572 4.95099 92.0162 5.21378C91.6753 5.47656 91.4356 5.7571 91.2971 6.0554L90.104 5.62926C90.317 5.1321 90.6011 4.74503 90.9562 4.46804C91.3149 4.1875 91.7055 3.99219 92.1281 3.8821C92.5542 3.76847 92.9733 3.71165 93.3852 3.71165C93.648 3.71165 93.9498 3.74361 94.2907 3.80753C94.6352 3.8679 94.9672 3.99396 95.2868 4.18572C95.61 4.37749 95.8781 4.6669 96.0912 5.05398C96.3042 5.44105 96.4108 5.95952 96.4108 6.60938V12H95.1537V10.892H95.0898C95.0045 11.0696 94.8625 11.2596 94.6636 11.462C94.4648 11.6644 94.2002 11.8366 93.8699 11.9787C93.5397 12.1207 93.1366 12.1918 92.6608 12.1918ZM92.8525 11.0625C93.3497 11.0625 93.7687 10.9648 94.1096 10.7695C94.4541 10.5742 94.7133 10.3221 94.8873 10.0131C95.0649 9.70419 95.1537 9.37926 95.1537 9.03835V7.88778C95.1004 7.9517 94.9832 8.0103 94.8021 8.06357C94.6246 8.11328 94.4186 8.15767 94.1842 8.19673C93.9534 8.23224 93.7279 8.2642 93.5077 8.29261C93.2911 8.31747 93.1153 8.33878 92.9804 8.35653C92.6537 8.39915 92.3483 8.46839 92.0642 8.56428C91.7836 8.65661 91.5564 8.79687 91.3824 8.98509C91.2119 9.16974 91.1267 9.42187 91.1267 9.74148C91.1267 10.1783 91.2883 10.5085 91.6114 10.7322C91.9381 10.9524 92.3518 11.0625 92.8525 11.0625ZM98.7053 12V3.81818H102.05C102.931 3.81818 103.631 4.01705 104.149 4.41477C104.668 4.8125 104.927 5.33807 104.927 5.99148C104.927 6.48864 104.779 6.87393 104.485 7.14737C104.19 7.41726 103.812 7.60014 103.35 7.69602C103.652 7.73864 103.945 7.84517 104.229 8.01562C104.517 8.18608 104.755 8.42045 104.943 8.71875C105.131 9.01349 105.225 9.37571 105.225 9.8054C105.225 10.2244 105.119 10.5991 104.906 10.9293C104.692 11.2596 104.387 11.5206 103.989 11.7124C103.592 11.9041 103.116 12 102.562 12H98.7053ZM99.8984 10.8494H102.562C102.995 10.8494 103.334 10.7464 103.579 10.5405C103.824 10.3345 103.947 10.054 103.947 9.69886C103.947 9.27628 103.824 8.94425 103.579 8.70277C103.334 8.45774 102.995 8.33523 102.562 8.33523H99.8984V10.8494ZM99.8984 7.24858H102.05C102.388 7.24858 102.677 7.20241 102.919 7.11008C103.16 7.0142 103.345 6.87926 103.473 6.70526C103.604 6.5277 103.67 6.31818 103.67 6.0767C103.67 5.73224 103.526 5.46236 103.238 5.26705C102.951 5.06818 102.555 4.96875 102.05 4.96875H99.8984V7.24858ZM109.536 12.1918C109.017 12.1918 108.547 12.0941 108.124 11.8988C107.702 11.6999 107.366 11.4141 107.117 11.0412C106.869 10.6648 106.745 10.2102 106.745 9.67756C106.745 9.20881 106.837 8.82884 107.022 8.53764C107.206 8.2429 107.453 8.01207 107.762 7.84517C108.071 7.67827 108.412 7.55398 108.785 7.4723C109.161 7.38707 109.539 7.3196 109.919 7.26989C110.416 7.20597 110.82 7.15803 111.128 7.12607C111.441 7.09055 111.668 7.03196 111.81 6.95028C111.956 6.86861 112.029 6.72656 112.029 6.52415V6.48153C112.029 5.95597 111.885 5.54759 111.597 5.25639C111.313 4.9652 110.882 4.8196 110.303 4.8196C109.703 4.8196 109.232 4.95099 108.891 5.21378C108.55 5.47656 108.311 5.7571 108.172 6.0554L106.979 5.62926C107.192 5.1321 107.476 4.74503 107.831 4.46804C108.19 4.1875 108.581 3.99219 109.003 3.8821C109.429 3.76847 109.848 3.71165 110.26 3.71165C110.523 3.71165 110.825 3.74361 111.166 3.80753C111.51 3.8679 111.842 3.99396 112.162 4.18572C112.485 4.37749 112.753 4.6669 112.966 5.05398C113.179 5.44105 113.286 5.95952 113.286 6.60938V12H112.029V10.892H111.965C111.88 11.0696 111.737 11.2596 111.539 11.462C111.34 11.6644 111.075 11.8366 110.745 11.9787C110.415 12.1207 110.012 12.1918 109.536 12.1918ZM109.728 11.0625C110.225 11.0625 110.644 10.9648 110.985 10.7695C111.329 10.5742 111.588 10.3221 111.762 10.0131C111.94 9.70419 112.029 9.37926 112.029 9.03835V7.88778C111.975 7.9517 111.858 8.0103 111.677 8.06357C111.5 8.11328 111.294 8.15767 111.059 8.19673C110.828 8.23224 110.603 8.2642 110.383 8.29261C110.166 8.31747 109.99 8.33878 109.855 8.35653C109.529 8.39915 109.223 8.46839 108.939 8.56428C108.659 8.65661 108.431 8.79687 108.257 8.98509C108.087 9.16974 108.002 9.42187 108.002 9.74148C108.002 10.1783 108.163 10.5085 108.486 10.7322C108.813 10.9524 109.227 11.0625 109.728 11.0625ZM119.288 9.91193H120.63C120.658 10.2812 120.825 10.5618 121.131 10.7536C121.44 10.9453 121.841 11.0412 122.335 11.0412C122.839 11.0412 123.27 10.9382 123.629 10.7322C123.988 10.5227 124.167 10.1854 124.167 9.72017C124.167 9.44673 124.099 9.20881 123.964 9.00639C123.83 8.80043 123.64 8.64062 123.395 8.52699C123.15 8.41335 122.86 8.35653 122.526 8.35653H121.12V7.22727H122.526C123.027 7.22727 123.396 7.11364 123.634 6.88636C123.876 6.65909 123.996 6.375 123.996 6.03409C123.996 5.66832 123.867 5.37535 123.608 5.15518C123.348 4.93146 122.981 4.8196 122.505 4.8196C122.026 4.8196 121.626 4.92791 121.306 5.14453C120.987 5.3576 120.818 5.63281 120.8 5.97017H119.479C119.494 5.52983 119.629 5.14098 119.884 4.80362C120.14 4.46271 120.488 4.19638 120.928 4.00462C121.369 3.8093 121.873 3.71165 122.441 3.71165C123.016 3.71165 123.515 3.81286 123.938 4.01527C124.364 4.21413 124.692 4.4858 124.923 4.83026C125.158 5.17116 125.275 5.55824 125.275 5.99148C125.275 6.45312 125.145 6.82599 124.886 7.11008C124.627 7.39418 124.302 7.59659 123.911 7.71733V7.80256C124.22 7.82386 124.488 7.9233 124.716 8.10085C124.946 8.27486 125.126 8.50391 125.254 8.788C125.381 9.06854 125.445 9.37926 125.445 9.72017C125.445 10.2173 125.312 10.6506 125.046 11.0199C124.779 11.3857 124.414 11.6697 123.949 11.8722C123.483 12.071 122.952 12.1705 122.356 12.1705C121.777 12.1705 121.259 12.0763 120.8 11.8881C120.342 11.6964 119.978 11.4318 119.708 11.0945C119.442 10.7536 119.302 10.3594 119.288 9.91193ZM129.619 12.1918C129.1 12.1918 128.63 12.0941 128.207 11.8988C127.785 11.6999 127.449 11.4141 127.2 11.0412C126.952 10.6648 126.828 10.2102 126.828 9.67756C126.828 9.20881 126.92 8.82884 127.105 8.53764C127.289 8.2429 127.536 8.01207 127.845 7.84517C128.154 7.67827 128.495 7.55398 128.868 7.4723C129.244 7.38707 129.622 7.3196 130.002 7.26989C130.499 7.20597 130.903 7.15803 131.211 7.12607C131.524 7.09055 131.751 7.03196 131.893 6.95028C132.039 6.86861 132.112 6.72656 132.112 6.52415V6.48153C132.112 5.95597 131.968 5.54759 131.68 5.25639C131.396 4.9652 130.965 4.8196 130.386 4.8196C129.786 4.8196 129.315 4.95099 128.974 5.21378C128.633 5.47656 128.394 5.7571 128.255 6.0554L127.062 5.62926C127.275 5.1321 127.559 4.74503 127.914 4.46804C128.273 4.1875 128.664 3.99219 129.086 3.8821C129.512 3.76847 129.931 3.71165 130.343 3.71165C130.606 3.71165 130.908 3.74361 131.249 3.80753C131.593 3.8679 131.925 3.99396 132.245 4.18572C132.568 4.37749 132.836 4.6669 133.049 5.05398C133.262 5.44105 133.369 5.95952 133.369 6.60938V12H132.112V10.892H132.048C131.963 11.0696 131.82 11.2596 131.622 11.462C131.423 11.6644 131.158 11.8366 130.828 11.9787C130.498 12.1207 130.095 12.1918 129.619 12.1918ZM129.811 11.0625C130.308 11.0625 130.727 10.9648 131.068 10.7695C131.412 10.5742 131.671 10.3221 131.845 10.0131C132.023 9.70419 132.112 9.37926 132.112 9.03835V7.88778C132.058 7.9517 131.941 8.0103 131.76 8.06357C131.583 8.11328 131.377 8.15767 131.142 8.19673C130.911 8.23224 130.686 8.2642 130.466 8.29261C130.249 8.31747 130.073 8.33878 129.938 8.35653C129.612 8.39915 129.306 8.46839 129.022 8.56428C128.742 8.65661 128.514 8.79687 128.34 8.98509C128.17 9.16974 128.085 9.42187 128.085 9.74148C128.085 10.1783 128.246 10.5085 128.569 10.7322C128.896 10.9524 129.31 11.0625 129.811 11.0625ZM146.828 10.8281L146.679 14.3438H145.379V12H144.314V10.8281H146.828ZM135.663 3.81818H136.92V10.8281H140.01V3.81818H141.267V10.8281H144.356V3.81818H145.614V12H135.663V3.81818ZM149.914 10.1463L153.855 3.81818H155.304V12H154.047V5.67188L150.127 12H148.656V3.81818H149.914V10.1463ZM168.771 10.8281L168.622 14.3438H167.323V12H166.257V10.8281H168.771ZM157.607 3.81818H158.864V10.8281H161.953V3.81818H163.21V10.8281H166.3V3.81818H167.557V12H157.607V3.81818ZM173.942 12.1705C173.154 12.1705 172.474 11.9964 171.902 11.6484C171.334 11.2969 170.895 10.8068 170.586 10.1783C170.281 9.54616 170.128 8.81108 170.128 7.97301C170.128 7.13494 170.281 6.39631 170.586 5.7571C170.895 5.11435 171.325 4.61364 171.876 4.25497C172.43 3.89276 173.076 3.71165 173.814 3.71165C174.241 3.71165 174.661 3.78267 175.077 3.92472C175.492 4.06676 175.871 4.29759 176.211 4.61719C176.552 4.93324 176.824 5.35227 177.026 5.87429C177.229 6.39631 177.33 7.03906 177.33 7.80256V8.33523H171.023V7.24858H176.052C176.052 6.78693 175.959 6.375 175.775 6.01278C175.594 5.65057 175.334 5.3647 174.997 5.15518C174.663 4.94567 174.269 4.84091 173.814 4.84091C173.314 4.84091 172.881 4.9652 172.515 5.21378C172.153 5.45881 171.874 5.77841 171.678 6.17258C171.483 6.56676 171.385 6.98935 171.385 7.44034V8.16477C171.385 8.78267 171.492 9.30646 171.705 9.73615C171.922 10.1623 172.222 10.4872 172.605 10.7109C172.989 10.9311 173.434 11.0412 173.942 11.0412C174.273 11.0412 174.571 10.995 174.837 10.9027C175.107 10.8068 175.34 10.6648 175.535 10.4766C175.73 10.2848 175.881 10.0469 175.988 9.76278L177.202 10.1037C177.074 10.5156 176.86 10.8778 176.558 11.1903C176.256 11.4993 175.883 11.7408 175.439 11.9148C174.995 12.0852 174.496 12.1705 173.942 12.1705ZM184.718 7.33381V8.50568H180.201V7.33381H184.718ZM180.499 3.81818V12H179.242V3.81818H180.499ZM185.677 3.81818V12H184.42V3.81818H185.677ZM189.059 6.77983H191.403C192.362 6.77983 193.095 7.02308 193.603 7.50959C194.111 7.99609 194.365 8.61222 194.365 9.35795C194.365 9.84801 194.251 10.2937 194.024 10.695C193.797 11.0927 193.463 11.4105 193.023 11.6484C192.582 11.8828 192.042 12 191.403 12H187.973V3.81818H189.23V10.8281H191.403C191.9 10.8281 192.309 10.6967 192.628 10.4339C192.948 10.1712 193.108 9.83381 193.108 9.42188C193.108 8.98864 192.948 8.6353 192.628 8.36186C192.309 8.08842 191.9 7.9517 191.403 7.9517H189.059V6.77983ZM195.665 12V3.81818H196.922V12H195.665Z" fill="black"/>
</svg>
